<svg height="512" width="512" xmlns="http://www.w3.org/2000/svg"><path d="M376.1 285.23 106.95 365.7a25.35 25.35 0 0 1-31.55-17.04l-45.17-151.1a25.35 25.35 0 0 1 17.03-31.55l269.16-80.47a25.35 25.35 0 0 1 31.56 17.03l45.17 151.1a25.36 25.36 0 0 1-17.03 31.56z" fill="#f79219"/><path d="m30.15 197.56 317.72-94.85 13.82 46.31-317.72 94.85z" fill="#ef7816"/><path d="M341.24 198.67 84.57 275.4a8.73 8.73 0 0 1-5-16.73l256.67-76.73a8.73 8.73 0 0 1 5 16.73zM249.38 268.95 96.32 314.7a8.73 8.73 0 0 1-5-16.72l153.05-45.76a8.73 8.73 0 0 1 5 16.73z" fill="#ffa91a"/><g><path d="M457.5 427.53H176.56c-14 0-25.35-11.36-25.35-25.36v-157.7c0-14.01 11.35-25.36 25.35-25.36H457.5c14 0 25.35 11.35 25.35 25.35v157.71c0 14-11.35 25.36-25.35 25.36z" fill="#478cf7"/><path d="M163.2 335.72a4.01 4.01 0 0 1 0-8.02 4 4 0 0 1 0 8.02zm0-16.02a4 4 0 0 1-4-3.98v-71.26a17.42 17.42 0 0 1 17.36-17.36h152.18a4 4 0 0 1 0 8H176.56a9.42 9.42 0 0 0-9.36 9.36v71.26c0 2.2-1.78 3.98-4 3.98z" fill="#5e9cf7"/><path d="M462.37 219.59c.31 1.58.48 3.2.48 4.87v157.71c0 14-11.35 25.36-25.35 25.36H156.56c-1.67 0-3.3-.18-4.88-.48a25.36 25.36 0 0 0 24.88 20.48H457.5c14 0 25.35-11.36 25.35-25.36v-157.7c0-12.34-8.8-22.61-20.48-24.88z" fill="#377de2"/><path d="M469.71 222.25c2 3.62 3.14 7.78 3.14 12.21v157.71c0 14-11.35 25.36-25.35 25.36H166.56c-4.43 0-8.59-1.15-12.22-3.14a25.35 25.35 0 0 0 22.22 13.14H457.5c14 0 25.35-11.36 25.35-25.36v-157.7c0-9.58-5.3-17.91-13.14-22.22z" fill="#2266d3"/><path d="M215.06 314.1h-27.05c-5.6 0-10.14-4.54-10.14-10.14V276.9c0-5.6 4.54-10.14 10.14-10.14h27.05c5.6 0 10.14 4.54 10.14 10.14v27.05c0 5.6-4.54 10.14-10.14 10.14z" fill="#ffa91a"/><path d="M207.68 300.58h-12.29a4 4 0 0 1-4-4v-12.29a4 4 0 0 1 4-4h12.29a4 4 0 0 1 4 4v12.29a4 4 0 0 1-4 4z" fill="#f79219"/><path d="M222.08 366.77h-41.1a8.73 8.73 0 0 1 0-17.46h41.1a8.73 8.73 0 0 1 0 17.46zM297.68 366.77h-41.1a8.73 8.73 0 0 1 0-17.46h41.1a8.73 8.73 0 0 1 0 17.46zM373.28 366.77h-41.1a8.73 8.73 0 0 1 0-17.46h41.1a8.73 8.73 0 0 1 0 17.46zM448.88 366.77h-41.1a8.73 8.73 0 0 1 0-17.46h41.1a8.73 8.73 0 0 1 0 17.46z" fill="#ffa91a"/><g><path d="M340.74 399.9H180.99a8.73 8.73 0 0 1 0-17.46h159.75a8.73 8.73 0 0 1 0 17.46z" fill="#ffa91a"/></g></g></svg>